<svg width="37" fill="currentColor"
    stroke="currentColor" height="35" viewBox="0 0 37 35"
    xmlns="http://www.w3.org/2000/svg">
    <path
        d="M4.50175 10.2083C4.76813 9.77174 5.14959 9.4079 5.60891 9.15231C6.06824 8.89673 6.58975 8.75812 7.12258 8.75H26.8559L27.7501 5.45417C27.8404 5.13601 28.042 4.85617 28.3219 4.66021C28.6019 4.46425 28.9437 4.36372 29.2917 4.375H32.3751C32.784 4.375 33.1761 4.52865 33.4652 4.80214C33.7543 5.07563 33.9167 5.44656 33.9167 5.83333C33.9167 6.22011 33.7543 6.59104 33.4652 6.86453C33.1761 7.13802 32.784 7.29167 32.3751 7.29167H30.4634L26.2084 22.2542C26.1181 22.5723 25.9165 22.8522 25.6366 23.0481C25.3566 23.2441 25.0148 23.3446 24.6667 23.3333H10.7917C10.5071 23.3325 10.2282 23.2571 9.98597 23.1156C9.74379 22.974 9.54778 22.7718 9.41967 22.5313L4.363 12.9646C4.14383 12.53 4.0418 12.0509 4.06601 11.57C4.09022 11.089 4.23992 10.6212 4.50175 10.2083Z"
    />
    <path
        d="M25.4375 30.625C24.1603 30.625 23.125 29.6456 23.125 28.4375C23.125 27.2294 24.1603 26.25 25.4375 26.25C26.7147 26.25 27.75 27.2294 27.75 28.4375C27.75 29.6456 26.7147 30.625 25.4375 30.625Z" />
    <path
        d="M10.0208 30.625C8.74359 30.625 7.70825 29.6456 7.70825 28.4375C7.70825 27.2294 8.74359 26.25 10.0208 26.25C11.2979 26.25 12.3333 27.2294 12.3333 28.4375C12.3333 29.6456 11.2979 30.625 10.0208 30.625Z" />
</svg>